<?xml version="1.0" encoding="utf-8"?>
<!-- Generator: Adobe Illustrator 27.0.0, SVG Export Plug-In . SVG Version: 6.00 Build 0)  -->
<svg version="1.1" id="Calque_1" xmlns="http://www.w3.org/2000/svg" xmlns:xlink="http://www.w3.org/1999/xlink" x="0px" y="0px"
	 viewBox="0 0 48 48" style="enable-background:new 0 0 48 48;" xml:space="preserve" >
<path fill="#0a99f6" d="M43.1,8.9C42.5,8.3,41.8,8,41,8H7C6.2,8,5.5,8.3,4.9,8.9C4.3,9.5,4,10.2,4,11v26c0,0.8,0.3,1.5,0.9,2.1
	C5.5,39.7,6.2,40,7,40h34c0.8,0,1.5-0.3,2.1-0.9c0.6-0.6,0.9-1.3,0.9-2.1V11C44,10.2,43.7,9.5,43.1,8.9z M40.8,11L24,21.9L7.2,11
	H40.8z M41,37H7V13.8l17,11.2l17-11.2V37z"/>
</svg>
